<svg width="706" height="800" viewBox="0 0 706 800" fill="none" xmlns="http://www.w3.org/2000/svg">
<mask id="mask0_1_1311" style="mask-type:luminance" maskUnits="userSpaceOnUse" x="0" y="0" width="706" height="801">
<path d="M0 0H706V800H0V0Z" fill="white"/>
</mask>
<g mask="url(#mask0_1_1311)">
<path d="M295.172 0C208.656 0 138.068 70.4063 138.068 157.104V233.484L190.375 181.359V157.104C190.375 99.3646 237.432 52.3073 295.172 52.3073H653.359C651.01 127.964 588.745 188.776 512.547 188.776H321.599C235.625 188.776 163.406 248.146 143.5 327.964C62.776 338.099 0.151001 407.24 0.151001 490.677V800H26.2135C70.0156 800 111.281 782.984 142.229 752.036C173.182 721.089 190.375 679.818 190.375 636.021V379.005H505.849C493.542 444.161 436.167 493.573 367.568 493.573H235.443V545.88H367.568C473.995 545.88 560.693 459.188 560.693 352.76V326.698H198.703C217.344 276.745 265.49 241.089 321.776 241.089H512.729C619.156 241.089 705.849 154.391 705.849 47.9635V0H295.172ZM138.068 635.839C138.068 665.703 126.484 693.755 105.307 714.932C90.4635 729.776 72.3645 739.911 52.4583 744.615V490.677C52.4583 438.01 89.0156 393.849 138.068 382.083V635.839Z" fill="white"/>
</g>
</svg>
